<svg xmlns="http://www.w3.org/2000/svg" viewBox="0 0 96 128"><defs><linearGradient id="g" x1="0" y1="0" x2="0" y2="1"><stop offset="0%" stop-color="#f6fdf0"/><stop offset="55%" stop-color="#e0f2cd"/><stop offset="100%" stop-color="#c5e4a9"/></linearGradient><linearGradient id="c" x1="0" y1="0" x2="0" y2="1"><stop offset="0%" stop-color="#57cb6d"/><stop offset="100%" stop-color="#2e8b3d"/></linearGradient></defs><rect x="34" y="2" width="28" height="13" rx="4" fill="url(#c)"/><path d="M38 15 L58 15 L58 30 C58 38 78 41 78 57 L78 108 C78 117 71 124 62 124 L34 124 C25 124 18 117 18 108 L18 57 C18 41 38 38 38 30 Z" fill="url(#g)" stroke="#9cc784" stroke-width="2.2" stroke-linejoin="round"/><rect x="41" y="55" width="15" height="15" rx="3.5" fill="#f7df1e"/><circle cx="34" cy="88" r="8.5" fill="#3776ab"/><circle cx="60" cy="98" r="8.5" fill="#61dafb"/><circle cx="42" cy="112" r="6.5" fill="#00599c"/></svg>
